name Walk4.mot
datacolumns 19
datarows 27
range 1.62500000 1.65100000
endheader

                time	   L_ground_force_vx	   L_ground_force_vy	   L_ground_force_vz	   L_ground_force_px	   L_ground_force_py	   L_ground_force_pz	   R_ground_force_vx	   R_ground_force_vy	   R_ground_force_vz	   R_ground_force_px	   R_ground_force_py	   R_ground_force_pz	   L_ground_torque_x	   L_ground_torque_y	   L_ground_torque_z	   R_ground_torque_x	   R_ground_torque_y	   R_ground_torque_z	
          1.62500000	          0.00000000	          0.00000000	          0.00000000	          0.00000000	          0.00000000	          0.00000000	         23.28406538	        683.21519247	        -15.33236109	         -0.09329407	          0.00000000	          0.35326002	          0.00000000	          0.00000000	          0.00000000	          0.00000000	          0.72663134	          0.00000000	
          1.62600000	          0.00000000	          0.00000000	          0.00000000	          0.00000000	          0.00000000	          0.00000000	         24.15901146	        685.64326068	        -15.24827581	         -0.09314168	          0.00000000	          0.35316599	          0.00000000	          0.00000000	          0.00000000	          0.00000000	          0.67833803	          0.00000000	
          1.62700000	          0.00000000	          0.00000000	          0.00000000	          0.00000000	          0.00000000	          0.00000000	         24.99533557	        688.06799968	        -15.18037752	         -0.09299639	          0.00000000	          0.35306916	          0.00000000	          0.00000000	          0.00000000	          0.00000000	          0.63421431	          0.00000000	
          1.62800000	          0.00000000	          0.00000000	          0.00000000	          0.00000000	          0.00000000	          0.00000000	         25.76279984	        690.46219539	        -15.12587532	         -0.09284998	          0.00000000	          0.35298134	          0.00000000	          0.00000000	          0.00000000	          0.00000000	          0.60784881	          0.00000000	
          1.62900000	          0.00000000	          0.00000000	          0.00000000	          0.00000000	          0.00000000	          0.00000000	         26.45227936	        692.78697696	        -15.08349211	         -0.09271041	          0.00000000	          0.35292672	          0.00000000	          0.00000000	          0.00000000	          0.00000000	          0.60012897	          0.00000000	
          1.63000000	          0.00000000	          0.00000000	          0.00000000	          0.00000000	          0.00000000	          0.00000000	         27.08129982	        695.02005648	        -15.04210910	         -0.09259024	          0.00000000	          0.35292533	          0.00000000	          0.00000000	          0.00000000	          0.00000000	          0.60444625	          0.00000000	
          1.63100000	          0.00000000	          0.00000000	          0.00000000	          0.00000000	          0.00000000	          0.00000000	         27.67833717	        697.17470447	        -14.98473596	         -0.09248399	          0.00000000	          0.35297996	          0.00000000	          0.00000000	          0.00000000	          0.00000000	          0.61663400	          0.00000000	
          1.63200000	          0.00000000	          0.00000000	          0.00000000	          0.00000000	          0.00000000	          0.00000000	         28.26729410	        699.30387949	        -14.90582952	         -0.09237169	          0.00000000	          0.35306427	          0.00000000	          0.00000000	          0.00000000	          0.00000000	          0.63688248	          0.00000000	
          1.63300000	          0.00000000	          0.00000000	          0.00000000	          0.00000000	          0.00000000	          0.00000000	         28.86618079	        701.47721962	        -14.81427634	         -0.09224069	          0.00000000	          0.35312992	          0.00000000	          0.00000000	          0.00000000	          0.00000000	          0.66363135	          0.00000000	
          1.63400000	          0.00000000	          0.00000000	          0.00000000	          0.00000000	          0.00000000	          0.00000000	         29.48683386	        703.73839446	        -14.71871724	         -0.09209585	          0.00000000	          0.35313852	          0.00000000	          0.00000000	          0.00000000	          0.00000000	          0.69276572	          0.00000000	
          1.63500000	          0.00000000	          0.00000000	          0.00000000	          0.00000000	          0.00000000	          0.00000000	         30.13433508	        706.07089789	        -14.61871196	         -0.09194427	          0.00000000	          0.35308828	          0.00000000	          0.00000000	          0.00000000	          0.00000000	          0.72037030	          0.00000000	
          1.63600000	          0.00000000	          0.00000000	          0.00000000	          0.00000000	          0.00000000	          0.00000000	         30.81180063	        708.39722998	        -14.51355796	         -0.09177730	          0.00000000	          0.35301223	          0.00000000	          0.00000000	          0.00000000	          0.00000000	          0.74144768	          0.00000000	
          1.63700000	          0.00000000	          0.00000000	          0.00000000	          0.00000000	          0.00000000	          0.00000000	         31.51879501	        710.62926867	        -14.41550456	         -0.09158649	          0.00000000	          0.35295355	          0.00000000	          0.00000000	          0.00000000	          0.00000000	          0.75139926	          0.00000000	
          1.63800000	          0.00000000	          0.00000000	          0.00000000	          0.00000000	          0.00000000	          0.00000000	         32.24885381	        712.73809734	        -14.34210116	         -0.09139472	          0.00000000	          0.35293519	          0.00000000	          0.00000000	          0.00000000	          0.00000000	          0.74956958	          0.00000000	
          1.63900000	          0.00000000	          0.00000000	          0.00000000	          0.00000000	          0.00000000	          0.00000000	         32.99865120	        714.76552591	        -14.29561287	         -0.09124462	          0.00000000	          0.35294324	          0.00000000	          0.00000000	          0.00000000	          0.00000000	          0.73766175	          0.00000000	
          1.64000000	          0.00000000	          0.00000000	          0.00000000	          0.00000000	          0.00000000	          0.00000000	         33.77282278	        716.76483207	        -14.26410486	         -0.09115173	          0.00000000	          0.35294406	          0.00000000	          0.00000000	          0.00000000	          0.00000000	          0.71718036	          0.00000000	
          1.64100000	          0.00000000	          0.00000000	          0.00000000	          0.00000000	          0.00000000	          0.00000000	         34.57825831	        718.75310426	        -14.23787003	         -0.09109070	          0.00000000	          0.35292433	          0.00000000	          0.00000000	          0.00000000	          0.00000000	          0.68933558	          0.00000000	
          1.64200000	          0.00000000	          0.00000000	          0.00000000	          0.00000000	          0.00000000	          0.00000000	         35.41843041	        720.71966080	        -14.21539338	         -0.09102880	          0.00000000	          0.35290497	          0.00000000	          0.00000000	          0.00000000	          0.00000000	          0.65604994	          0.00000000	
          1.64300000	          0.00000000	          0.00000000	          0.00000000	          0.00000000	          0.00000000	          0.00000000	         36.28795122	        722.65803196	        -14.20228196	         -0.09096033	          0.00000000	          0.35290700	          0.00000000	          0.00000000	          0.00000000	          0.00000000	          0.62098452	          0.00000000	
          1.64400000	          0.00000000	          0.00000000	          0.00000000	          0.00000000	          0.00000000	          0.00000000	         37.17311773	        724.58833112	        -14.20666120	         -0.09090837	          0.00000000	          0.35290951	          0.00000000	          0.00000000	          0.00000000	          0.00000000	          0.59012633	          0.00000000	
          1.64500000	          0.00000000	          0.00000000	          0.00000000	          0.00000000	          0.00000000	          0.00000000	         38.06025482	        726.53780973	        -14.22821236	         -0.09088969	          0.00000000	          0.35285799	          0.00000000	          0.00000000	          0.00000000	          0.00000000	          0.57302770	          0.00000000	
          1.64600000	          0.00000000	          0.00000000	          0.00000000	          0.00000000	          0.00000000	          0.00000000	         38.94174988	        728.49693091	        -14.25428852	         -0.09087851	          0.00000000	          0.35272504	          0.00000000	          0.00000000	          0.00000000	          0.00000000	          0.58026543	          0.00000000	
          1.64700000	          0.00000000	          0.00000000	          0.00000000	          0.00000000	          0.00000000	          0.00000000	         39.82075212	        730.43804906	        -14.27203000	         -0.09082674	          0.00000000	          0.35254369	          0.00000000	          0.00000000	          0.00000000	          0.00000000	          0.61379601	          0.00000000	
          1.64800000	          0.00000000	          0.00000000	          0.00000000	          0.00000000	          0.00000000	          0.00000000	         40.71047744	        732.37058868	        -14.27970048	         -0.09071996	          0.00000000	          0.35236844	          0.00000000	          0.00000000	          0.00000000	          0.00000000	          0.66316089	          0.00000000	
          1.64900000	          0.00000000	          0.00000000	          0.00000000	          0.00000000	          0.00000000	          0.00000000	         41.62309165	        734.33164317	        -14.28102010	         -0.09058804	          0.00000000	          0.35222892	          0.00000000	          0.00000000	          0.00000000	          0.00000000	          0.71578465	          0.00000000	
          1.65000000	          0.00000000	          0.00000000	          0.00000000	          0.00000000	          0.00000000	          0.00000000	         42.56268856	        736.33556201	        -14.27496274	         -0.09046738	          0.00000000	          0.35213040	          0.00000000	          0.00000000	          0.00000000	          0.00000000	          0.76499827	          0.00000000	
          1.65100000	          0.00000000	          0.00000000	          0.00000000	          0.00000000	          0.00000000	          0.00000000	         43.52627676	        738.34317158	        -14.25965039	         -0.09036994	          0.00000000	          0.35207772	          0.00000000	          0.00000000	          0.00000000	          0.00000000	          0.80559316	          0.00000000	
